<svg xmlns="http://www.w3.org/2000/svg" xmlns:xlink="http://www.w3.org/1999/xlink" contentStyleType="text/css" height="524px" preserveAspectRatio="none" style="width:568px;height:524px;background:#FFFFFF;" version="1.1" viewBox="0 0 568 524" width="568px" zoomAndPan="magnify"><defs/><g><!--cluster Vision System--><g id="cluster_Vision System"><path d="M8.5,6 L121.042,6 A3.75,3.75 0 0 1 123.542,8.5 L130.542,28.2969 L189.5,28.2969 A2.5,2.5 0 0 1 192,30.7969 L192,245.09 A2.5,2.5 0 0 1 189.5,247.59 L8.5,247.59 A2.5,2.5 0 0 1 6,245.09 L6,8.5 A2.5,2.5 0 0 1 8.5,6 " fill="none" style="stroke:#000000;stroke-width:1.5;"/><line style="stroke:#000000;stroke-width:1.5;" x1="6" x2="130.542" y1="28.2969" y2="28.2969"/><text fill="#000000" font-family="sans-serif" font-size="14" font-weight="bold" lengthAdjust="spacing" textLength="111.542" x="10" y="20.9951">Vision System</text></g><!--cluster Conveyor Belt System--><g id="cluster_Conveyor Belt System"><path d="M218.5,150.3 L393.3516,150.3 A3.75,3.75 0 0 1 395.8516,152.8 L402.8516,172.5969 L558.5,172.5969 A2.5,2.5 0 0 1 561,175.0969 L561,245.09 A2.5,2.5 0 0 1 558.5,247.59 L218.5,247.59 A2.5,2.5 0 0 1 216,245.09 L216,152.8 A2.5,2.5 0 0 1 218.5,150.3 " fill="none" style="stroke:#000000;stroke-width:1.5;"/><line style="stroke:#000000;stroke-width:1.5;" x1="216" x2="402.8516" y1="172.5969" y2="172.5969"/><text fill="#000000" font-family="sans-serif" font-size="14" font-weight="bold" lengthAdjust="spacing" textLength="173.8516" x="220" y="165.2951">Conveyor Belt System</text></g><!--cluster Robotic Arm--><g id="cluster_Robotic Arm"><path d="M223.5,296.59 L321.5293,296.59 A3.75,3.75 0 0 1 324.0293,299.09 L331.0293,318.8869 L513.5,318.8869 A2.5,2.5 0 0 1 516,321.3869 L516,391.39 A2.5,2.5 0 0 1 513.5,393.89 L223.5,393.89 A2.5,2.5 0 0 1 221,391.39 L221,299.09 A2.5,2.5 0 0 1 223.5,296.59 " fill="none" style="stroke:#000000;stroke-width:1.5;"/><line style="stroke:#000000;stroke-width:1.5;" x1="221" x2="331.0293" y1="318.8869" y2="318.8869"/><text fill="#000000" font-family="sans-serif" font-size="14" font-weight="bold" lengthAdjust="spacing" textLength="97.0293" x="225" y="311.5851">Robotic Arm</text></g><!--entity Camera--><g id="elem_Camera"><rect fill="#F1F1F1" height="46.2969" rx="2.5" ry="2.5" style="stroke:#181818;stroke-width:0.5;" width="94.9404" x="55.53" y="41"/><rect fill="#F1F1F1" height="10" style="stroke:#181818;stroke-width:0.5;" width="15" x="130.4704" y="46"/><rect fill="#F1F1F1" height="2" style="stroke:#181818;stroke-width:0.5;" width="4" x="128.4704" y="48"/><rect fill="#F1F1F1" height="2" style="stroke:#181818;stroke-width:0.5;" width="4" x="128.4704" y="52"/><text fill="#000000" font-family="sans-serif" font-size="14" lengthAdjust="spacing" textLength="54.9404" x="70.53" y="73.9951">Camera</text></g><!--entity Lighting System--><g id="elem_Lighting System"><rect fill="#F1F1F1" height="46.2969" rx="2.5" ry="2.5" style="stroke:#181818;stroke-width:0.5;" width="153.2441" x="22.38" y="185.3"/><rect fill="#F1F1F1" height="10" style="stroke:#181818;stroke-width:0.5;" width="15" x="155.6241" y="190.3"/><rect fill="#F1F1F1" height="2" style="stroke:#181818;stroke-width:0.5;" width="4" x="153.6241" y="192.3"/><rect fill="#F1F1F1" height="2" style="stroke:#181818;stroke-width:0.5;" width="4" x="153.6241" y="196.3"/><text fill="#000000" font-family="sans-serif" font-size="14" lengthAdjust="spacing" textLength="113.2441" x="37.38" y="218.2951">Lighting System</text></g><!--entity Conveyor Belt--><g id="elem_Conveyor Belt"><rect fill="#F1F1F1" height="46.2969" rx="2.5" ry="2.5" style="stroke:#181818;stroke-width:0.5;" width="138.7656" x="231.62" y="185.3"/><rect fill="#F1F1F1" height="10" style="stroke:#181818;stroke-width:0.5;" width="15" x="350.3856" y="190.3"/><rect fill="#F1F1F1" height="2" style="stroke:#181818;stroke-width:0.5;" width="4" x="348.3856" y="192.3"/><rect fill="#F1F1F1" height="2" style="stroke:#181818;stroke-width:0.5;" width="4" x="348.3856" y="196.3"/><text fill="#000000" font-family="sans-serif" font-size="14" lengthAdjust="spacing" textLength="98.7656" x="246.62" y="218.2951">Conveyor Belt</text></g><!--entity Stepper Motor--><g id="elem_Stepper Motor"><rect fill="#F1F1F1" height="46.2969" rx="2.5" ry="2.5" style="stroke:#181818;stroke-width:0.5;" width="140.0371" x="404.98" y="185.3"/><rect fill="#F1F1F1" height="10" style="stroke:#181818;stroke-width:0.5;" width="15" x="525.0171" y="190.3"/><rect fill="#F1F1F1" height="2" style="stroke:#181818;stroke-width:0.5;" width="4" x="523.0171" y="192.3"/><rect fill="#F1F1F1" height="2" style="stroke:#181818;stroke-width:0.5;" width="4" x="523.0171" y="196.3"/><text fill="#000000" font-family="sans-serif" font-size="14" lengthAdjust="spacing" textLength="100.0371" x="419.98" y="218.2951">Stepper Motor</text></g><!--entity 6-Axis Robot--><g id="elem_6-Axis Robot"><rect fill="#F1F1F1" height="46.2969" rx="2.5" ry="2.5" style="stroke:#181818;stroke-width:0.5;" width="128.6895" x="236.66" y="331.59"/><rect fill="#F1F1F1" height="10" style="stroke:#181818;stroke-width:0.5;" width="15" x="345.3495" y="336.59"/><rect fill="#F1F1F1" height="2" style="stroke:#181818;stroke-width:0.5;" width="4" x="343.3495" y="338.59"/><rect fill="#F1F1F1" height="2" style="stroke:#181818;stroke-width:0.5;" width="4" x="343.3495" y="342.59"/><text fill="#000000" font-family="sans-serif" font-size="14" lengthAdjust="spacing" textLength="88.6895" x="251.66" y="364.5851">6-Axis Robot</text></g><!--entity Grippers--><g id="elem_Grippers"><rect fill="#F1F1F1" height="46.2969" rx="2.5" ry="2.5" style="stroke:#181818;stroke-width:0.5;" width="99.9307" x="400.03" y="331.59"/><rect fill="#F1F1F1" height="10" style="stroke:#181818;stroke-width:0.5;" width="15" x="479.9607" y="336.59"/><rect fill="#F1F1F1" height="2" style="stroke:#181818;stroke-width:0.5;" width="4" x="477.9607" y="338.59"/><rect fill="#F1F1F1" height="2" style="stroke:#181818;stroke-width:0.5;" width="4" x="477.9607" y="342.59"/><text fill="#000000" font-family="sans-serif" font-size="14" lengthAdjust="spacing" textLength="59.9307" x="415.03" y="364.5851">Grippers</text></g><!--entity Material--><g id="elem_Material"><ellipse cx="450" cy="485.89" fill="#F1F1F1" rx="8" ry="8" style="stroke:#181818;stroke-width:0.5;"/><text fill="#000000" font-family="sans-serif" font-size="14" lengthAdjust="spacing" textLength="56.875" x="421.5625" y="515.8851">Material</text></g><!--link Camera to Lighting System--><g id="link_Camera_Lighting System"><path d="M102.37,87.7 C101.62,114.34 100.5491,152.4024 99.7991,179.0024 " fill="none" id="Camera-to-Lighting System" style="stroke:#181818;stroke-width:1.0;"/><polygon fill="#181818" points="99.63,185,103.8821,176.1163,99.7709,180.002,95.8852,175.8908,99.63,185" style="stroke:#181818;stroke-width:1.0;"/><text fill="#000000" font-family="sans-serif" font-size="13" lengthAdjust="spacing" textLength="97.5444" x="102" y="130.3669">Adjust Lighting</text></g><!--link Camera to Conveyor Belt--><g id="link_Camera_Conveyor Belt"><path d="M150.76,85.05 C169.35,93.76 190.38,104.84 208,117.3 C236.09,137.16 259.7866,161.038 277.5566,180.608 " fill="none" id="Camera-to-Conveyor Belt" style="stroke:#181818;stroke-width:1.0;"/><polygon fill="#181818" points="281.59,185.05,278.5012,175.698,278.2288,181.3483,272.5785,181.076,281.59,185.05" style="stroke:#181818;stroke-width:1.0;"/><text fill="#000000" font-family="sans-serif" font-size="13" lengthAdjust="spacing" textLength="124.8584" x="228" y="130.3669">Send Material Data</text></g><!--link Conveyor Belt to 6-Axis Robot--><g id="link_Conveyor Belt_6-Axis Robot"><path d="M301,231.99 C301,259.1 301,298.32 301,325.35 " fill="none" id="Conveyor Belt-to-6-Axis Robot" style="stroke:#181818;stroke-width:1.0;"/><polygon fill="#181818" points="301,331.35,305,322.35,301,326.35,297,322.35,301,331.35" style="stroke:#181818;stroke-width:1.0;"/><text fill="#000000" font-family="sans-serif" font-size="13" lengthAdjust="spacing" textLength="70.7129" x="302" y="276.6569">Sort Signal</text></g><!--link Grippers to Material--><g id="link_Grippers_Material"><path d="M450,378.24 C450,407.72 450,451.94 450,471.13 " fill="none" id="Grippers-to-Material" style="stroke:#181818;stroke-width:1.0;"/><polygon fill="#181818" points="450,477.13,454,468.13,450,472.13,446,468.13,450,477.13" style="stroke:#181818;stroke-width:1.0;"/><text fill="#000000" font-family="sans-serif" font-size="13" lengthAdjust="spacing" textLength="26.127" x="451" y="422.9569">Pick</text></g><!--SRC=[TP2n2i9038RtUuhGlQj31w5MS54G2-wnXXhRNewxA1RntQsM8gUu9j__yISEgmPhWcJFWSL2sGUbBe6x0QYaSsB9AXJOaSTebAovFYdRUegOXp5kiXLYhzIBXmMr-aSQGqcyAvMS8myRKV6nUoS7KQuWzx_AMPhVEC0R-JAkFB-CuIqR3u8qdVyUaa5-F5-2mhI8wBXq1YNP8snGoJEsi4H5yyMCkQZP41C__8LhYwtvL1lHoJPWMwwQ9m00]--></g></svg>